<svg width="121" height="14" viewBox="0 0 121 14" fill="none" xmlns="http://www.w3.org/2000/svg">
<g clip-path="url(#clip0_17998_11128)">
<path d="M14 6.99003C14 8.92902 13.3167 10.5833 11.95 11.95C10.5833 13.3167 8.93756 14 7.00997 14C5.08237 14 3.43095 13.3167 2.05857 11.95C0.686191 10.5833 0 8.93187 0 6.99003C0 5.06244 0.686191 3.41672 2.05857 2.05003C3.43095 0.683343 5.08237 0 7.00997 0C8.93756 0 10.5833 0.683343 11.95 2.05003C13.3167 3.41672 14 5.06244 14 6.99003ZM13.5786 7.00142C13.0291 5.79134 12.1806 4.80618 11.0303 4.04881C9.82306 3.2288 8.47915 2.81879 7.00142 2.81879C5.52369 2.81879 4.17409 3.2288 2.94977 4.04881C1.81371 4.80618 0.970917 5.79134 0.421395 7.00142C0.970917 8.21151 1.81371 9.20236 2.94977 9.97397C4.17124 10.7797 5.52085 11.1841 7.00142 11.1841C8.482 11.1841 9.82306 10.7797 11.0332 9.97397C12.1806 9.20236 13.0291 8.21151 13.5786 7.00142ZM10.7256 6.99003C10.7256 8.01505 10.3612 8.88916 9.63799 9.61521C8.91194 10.3413 8.03783 10.7029 7.01281 10.7029C5.9878 10.7029 5.11369 10.3413 4.38763 9.61521C3.66158 8.88916 3.29998 8.01505 3.29998 6.99003C3.29998 5.96502 3.66158 5.09376 4.38763 4.3734C5.11369 3.65304 5.9878 3.29429 7.01281 3.29429C8.03783 3.29429 8.91194 3.65304 9.63799 4.3734C10.3612 5.09376 10.7256 5.96502 10.7256 6.99003Z" fill="black"/>
<path d="M15.2471 7.00141C15.2471 3.38538 18.2282 0.404297 22.1147 0.404297C25.6396 0.404297 27.4476 2.93552 27.4476 2.93552L25.6396 4.74353C25.6396 4.74353 24.3754 2.93552 22.1147 2.93552C19.8539 2.93552 18.0488 4.74353 18.0488 7.00141C18.0488 9.25929 19.8568 11.0673 22.1147 11.0673C24.4637 11.0673 25.7307 9.25929 25.7307 9.25929L27.5387 11.0673C27.5387 11.0673 25.7307 13.5985 22.1175 13.5985C18.2282 13.5985 15.2471 10.6146 15.2471 7.00141Z" fill="black"/>
<path d="M28.5493 0.674805H33.8822C36.4135 0.674805 37.9481 2.21233 37.9481 4.01749C37.9481 6.00488 36.2312 6.63698 36.2312 6.63698C36.2312 6.63698 38.5802 7.26907 38.5802 9.70918C38.5802 11.6966 36.9544 13.3252 34.2438 13.3252H28.5493V0.674805ZM33.7 5.55502C34.6026 5.55502 35.1464 5.01404 35.1464 4.29083C35.1464 3.56763 34.6054 3.02665 33.7 3.02665H31.2599V5.55786H33.7V5.55502ZM34.0616 10.9762C35.1464 10.9762 35.7785 10.3441 35.7785 9.43869C35.7785 8.53326 35.1464 7.90116 34.0616 7.90116H31.2599V10.9734H34.0616V10.9762Z" fill="black"/>
<path d="M38.9048 11.6082L40.7128 9.80019C40.7128 9.80019 41.7976 11.1555 43.6939 11.1555C45.1403 11.1555 45.7724 10.5234 45.7724 9.70908C45.7724 7.53946 39.4458 8.53316 39.4458 4.10566C39.4458 2.11827 41.1627 0.401367 44.0555 0.401367C46.8572 0.401367 48.3036 2.11827 48.3036 2.11827L46.4956 3.92628C46.4956 3.92628 45.593 2.84147 44.1466 2.84147C42.7913 2.84147 42.2475 3.38245 42.2475 4.10566C42.2475 6.27527 48.5741 5.28158 48.5741 9.70908C48.5741 11.7876 46.7661 13.5956 43.785 13.5956C40.5306 13.5984 38.9048 11.6082 38.9048 11.6082Z" fill="black"/>
<path d="M52.4609 11.6082L54.269 9.80019C54.269 9.80019 55.3538 11.1555 57.25 11.1555C58.6964 11.1555 59.3285 10.5234 59.3285 9.70908C59.3285 7.53946 53.0019 8.53316 53.0019 4.10566C53.0019 2.11827 54.7188 0.401367 57.6116 0.401367C60.4133 0.401367 61.8598 2.11827 61.8598 2.11827L60.0517 3.92628C60.0517 3.92628 59.1492 2.84147 57.7028 2.84147C56.3475 2.84147 55.8036 3.38245 55.8036 4.10566C55.8036 6.27527 62.1303 5.28158 62.1303 9.70908C62.1303 11.7876 60.3222 13.5956 57.3411 13.5956C54.0867 13.5984 52.4609 11.6082 52.4609 11.6082Z" fill="black"/>
<path d="M63.4116 0.674805H68.7445C71.4551 0.674805 73.2632 2.48282 73.2632 4.92292C73.2632 7.36303 71.4551 9.17104 68.7445 9.17104H66.1251V13.3281H63.4145V0.674805H63.4116ZM68.6534 6.63983C69.7382 6.63983 70.4614 5.91662 70.4614 4.92292C70.4614 3.92923 69.7382 3.20602 68.6534 3.20602H66.1222V6.63983H68.6534Z" fill="black"/>
<path d="M74.1484 7.00141C74.1484 3.38538 77.1295 0.404297 81.016 0.404297C84.9026 0.404297 87.8836 3.38538 87.8836 7.00141C87.8836 10.6174 84.9026 13.5985 81.016 13.5985C77.1295 13.5985 74.1484 10.6146 74.1484 7.00141ZM85.0819 7.00141C85.0819 4.74353 83.2739 2.93552 81.016 2.93552C78.7582 2.93552 76.9501 4.74353 76.9501 7.00141C76.9501 9.25929 78.7582 11.0673 81.016 11.0673C83.2739 11.0673 85.0819 9.25929 85.0819 7.00141Z" fill="black"/>
<path d="M89.3101 0.674805H94.9135C97.6241 0.674805 99.341 2.39171 99.341 4.92292C99.341 7.81574 97.1714 8.62722 97.1714 8.62722L99.7908 13.3252H96.8098L94.5519 9.1682H92.0207V13.3252H89.3101V0.674805ZM94.8224 6.63982C95.8161 6.63982 96.5393 5.91662 96.5393 4.92292C96.5393 3.92923 95.8161 3.20602 94.8224 3.20602H92.0207V6.63982H94.8224Z" fill="black"/>
<path d="M103.86 3.20602H100.244V0.674805H110.183V3.20602H106.567V13.3252H103.857V3.20602H103.86Z" fill="black"/>
<path d="M110.439 11.6082L112.247 9.80019C112.247 9.80019 113.332 11.1555 115.229 11.1555C116.675 11.1555 117.307 10.5234 117.307 9.70908C117.307 7.53946 110.98 8.53316 110.98 4.10566C110.98 2.11827 112.697 0.401367 115.59 0.401367C118.392 0.401367 119.838 2.11827 119.838 2.11827L118.03 3.92628C118.03 3.92628 117.128 2.84147 115.681 2.84147C114.326 2.84147 113.782 3.38245 113.782 4.10566C113.782 6.27527 120.109 5.28158 120.109 9.70908C120.109 11.7876 118.301 13.5956 115.32 13.5956C112.065 13.5984 110.439 11.6082 110.439 11.6082Z" fill="black"/>
</g>
<defs>
<clipPath id="clip0_17998_11128">
<rect width="120.109" height="14" fill="white"/>
</clipPath>
</defs>
</svg>
