<svg width="24" height="24" viewBox="0 0 24 24" fill="none" xmlns="http://www.w3.org/2000/svg">
<path d="M21.4964 11.3259C20.9507 10.401 20.2751 9.58901 19.9085 9.17495L20.2058 9.01659L20.0938 8.76206C19.827 8.15504 19.3953 7.52691 19.256 7.33074C18.4683 1.93876 16.0212 0.355234 15.9161 0.290251L15.7219 0.169434L15.5542 0.325147C14.3179 1.4647 13.7971 3.02301 13.6302 3.64023C12.9936 3.58422 12.1162 3.54464 12.074 3.54317L12.0622 3.5423L12.0482 3.54317C12.0059 3.54465 11.1291 3.58422 10.4916 3.64023C10.3248 3.02296 9.80513 1.46463 8.56792 0.325147L8.40077 0.169434L8.20517 0.290251C8.10224 0.355352 5.65323 1.93888 4.86733 7.33074C4.72774 7.52692 4.29463 8.15506 4.02864 8.76206L3.91662 9.01659L4.2125 9.17495C3.84653 9.58901 3.17117 10.401 2.62604 11.3259L2.56299 11.4327L2.59466 11.5547C2.6363 11.7104 3.61867 15.4142 5.08279 17.9695L5.42003 18.5554L5.66635 17.7953C6.21385 18.6785 7.38388 20.3338 8.99106 21.3227C9.18724 21.7839 10.0951 23.6481 12.0197 23.9164L12.0619 23.9222L12.1024 23.9164C14.0273 23.648 14.934 21.7839 15.1301 21.3227C16.7374 20.3338 17.9077 18.6785 18.4548 17.7953L18.7011 18.5554L19.0375 17.9695C20.5023 15.4145 21.4855 11.7104 21.5268 11.5547L21.5576 11.4327L21.4957 11.3259H21.4964Z" fill="#A2AAAD"/>
<path d="M8.36348 0.542358C8.36348 0.542358 5.91569 2.06902 5.15232 7.44513C5.15232 7.44513 4.60716 8.18613 4.3019 8.88113L4.69366 9.09006C4.69366 9.09006 3.64799 10.1783 2.88379 11.4768C2.88379 11.4768 3.88106 15.2691 5.34213 17.8168L5.58817 17.0608C5.58817 17.0608 7.00598 19.7955 9.23076 21.1153C9.23076 21.1153 10.0594 23.341 12.0609 23.6175C14.0609 23.341 14.8904 21.1153 14.8904 21.1153C17.1144 19.7954 18.5309 17.0608 18.5309 17.0608L18.7783 17.8168C20.2393 15.2691 21.2369 11.4768 21.2369 11.4768C20.4721 10.1784 19.4256 9.09006 19.4256 9.09006L19.8179 8.88113C19.5126 8.18613 18.9674 7.44513 18.9674 7.44513C18.2041 2.06911 15.756 0.542358 15.756 0.542358C14.2687 1.9162 13.86 3.96325 13.86 3.96325C13.2375 3.89375 12.0611 3.84183 12.0611 3.84183C12.0611 3.84183 10.883 3.89375 10.2604 3.96325C10.2604 3.96325 9.85171 1.9162 8.3635 0.542358L8.36348 0.542358Z" fill="#000E2F"/>
<path d="M12.063 6.80566C12.5507 9.06736 12.7104 11.9929 12.7124 12.0303C13.7097 12.7429 14.3169 13.71 14.3169 13.71C14.4796 12.9625 14.4468 12.1348 14.4468 12.1348C15.8098 11.738 15.8679 10.6567 15.8687 10.6406C15.8616 10.6397 15.3426 10.5721 14.8071 10.6582L14.938 10.2412C14.938 10.2412 14.2507 10.5528 13.6616 11.9092C13.6616 11.9092 13.1053 11.5084 13.2524 9.35449C13.2524 9.35449 13.7437 8.67558 14.4624 8.39844C14.7839 8.79024 15.0583 9.26752 15.0679 9.28418L14.8228 9.40625C15.4934 10.2934 16.4263 10.4658 16.4263 10.4658C16.4752 11.5424 16.1879 12.8925 16.187 12.8965C16.857 12.149 17.0806 10.9346 17.0806 10.9346C17.9092 10.641 18.4961 10.572 18.5024 10.5713L19.3052 11.248L18.5024 11.7705L19.8286 11.9424C19.3861 13.8192 18.5513 15.7842 18.5513 15.7842L18.3062 15.1758C17.2428 17.2596 16.2456 17.9033 16.2456 17.9033C16.5388 16.8641 17.012 15.719 17.0142 15.7139C15.5261 16.7916 14.6341 19.1114 14.2505 20.3369C13.6662 22.1984 12.1017 22.1676 12.0757 22.167C12.0757 22.167 10.4884 22.2141 9.89893 20.3369C9.5149 19.1114 8.62372 16.7916 7.13525 15.7139C7.13856 15.7219 7.61033 16.8654 7.90283 17.9033C7.89315 17.897 6.90097 17.2494 5.84229 15.1758L5.59814 15.7842C5.59814 15.7842 4.76254 13.8192 4.32178 11.9424L5.64697 11.7695L4.84521 11.248L5.64697 10.5713C5.66335 10.5732 6.24822 10.6434 7.06982 10.9346C7.06982 10.9346 7.29146 12.149 7.9624 12.8965C7.9624 12.8965 7.67491 11.544 7.72412 10.4658C7.72412 10.4658 8.65663 10.2932 9.32666 9.40625L9.08252 9.28418C9.08978 9.27143 9.36384 8.79192 9.68701 8.39844C10.3999 8.67328 10.8896 9.34208 10.8979 9.35352C11.0443 11.5079 10.4888 11.9092 10.4888 11.9092C9.89935 10.5526 9.21143 10.2402 9.21143 10.2402L9.34229 10.6582C8.8075 10.5721 8.28939 10.6385 8.28076 10.6396C8.28076 10.6396 8.32871 11.735 9.70264 12.1348C9.70209 12.1489 9.67149 12.9681 9.83447 13.709C9.84714 13.6888 10.4494 12.7353 11.436 12.0303C11.436 12.0303 11.5568 9.43889 11.9751 7.23926L12.063 6.80566ZM8.29639 1.64062C9.53852 2.75369 9.8999 4.82129 9.8999 4.82129L9.50732 5.06543C9.73279 5.06545 10.2272 5.13171 10.2427 5.13379C10.2171 5.14671 8.98725 5.77205 7.85498 6.94141C7.85739 6.92528 7.98874 6.05109 8.26318 5.53418L7.87061 5.58594C7.8765 5.56692 8.12308 4.77762 8.72119 3.93555C8.72119 3.93555 8.67179 3.01419 8.24658 2.35352C8.24658 2.35352 7.41235 3.44702 6.84229 4.73242C6.27163 6.01743 5.90869 6.94238 5.90869 6.94238C6.41328 2.95471 8.28648 1.64849 8.29639 1.6416V1.64062ZM15.853 1.64062C15.853 1.64062 17.7342 2.94323 18.2407 6.94141C18.2335 6.92293 17.8717 6.00411 17.3071 4.73242C16.7432 3.45992 15.9198 2.37577 15.9028 2.35352C15.4828 3.00534 15.4295 3.91117 15.4282 3.93457C16.025 4.77483 16.2711 5.56404 16.2778 5.58594L15.8862 5.53418C16.1602 6.05034 16.2915 6.92204 16.2944 6.94141C15.1504 5.75977 13.9067 5.13379 13.9067 5.13379C13.9067 5.13379 14.4136 5.06546 14.6421 5.06543L14.2505 4.82129C14.2505 4.82129 14.6106 2.75417 15.853 1.6416V1.64062Z" fill="white"/>
<path d="M12.0748 15.2277C12.8751 15.2277 13.3495 15.7839 13.3495 15.7839C13.3331 17.3836 12.2709 17.6254 12.2709 17.6254C12.2709 17.6254 12.1722 18.0783 13.0393 18.0428C13.9068 18.0082 14.1847 17.5391 14.8712 16.2183C15.1389 15.7019 15.3553 15.5429 15.5196 15.5429C14.9492 16.537 14.5644 17.7624 14.4433 18.1753C14.3084 18.5665 14.185 18.9858 14.0859 19.4157C13.6445 21.3109 12.0748 21.4487 12.0748 21.4487C12.0748 21.4487 10.5046 21.3109 10.0638 19.4157C9.96908 19.0142 9.85699 18.6232 9.73206 18.2546C9.64438 17.9455 9.24708 16.6104 8.6333 15.5429C8.79723 15.5456 9.01009 15.706 9.27753 16.2183C9.96372 17.5391 10.2428 18.0082 11.1094 18.0428C11.9762 18.0783 11.8787 17.6254 11.8787 17.6254C11.8787 17.6254 10.8153 17.3836 10.7992 15.7839C10.7992 15.7839 11.2722 15.2277 12.0748 15.2277L12.0748 15.2277Z" fill="#000E2F"/>
<path d="M9.18342 11.0706C9.17717 11.1105 9.14371 11.337 9.36701 11.4036C9.4365 11.4247 9.49188 11.4196 9.53498 11.4026C9.47604 11.3137 9.43501 11.216 9.40803 11.1331C9.53823 11.1806 9.68933 11.2527 9.83772 11.3635C9.83772 11.3635 9.72587 11.774 9.29572 11.6448C8.86904 11.517 8.97574 11.0502 8.97736 11.0432C8.97736 11.0432 9.0585 11.0448 9.18342 11.0706ZM15.1707 11.0432C15.1707 11.0432 15.2829 11.516 14.8533 11.6448C14.4214 11.7738 14.3113 11.3635 14.3113 11.3635C14.4605 11.2528 14.6096 11.1808 14.742 11.1331C14.7133 11.2163 14.6721 11.3137 14.6141 11.4026C14.6566 11.4199 14.712 11.4257 14.7821 11.4045C15.0052 11.3378 14.9724 11.1107 14.9647 11.0706C15.0855 11.0458 15.1644 11.0433 15.1707 11.0432Z" fill="#A4C8E1"/>
<path d="M12.0612 19.6747C12.4594 19.6615 12.9054 19.2615 12.9204 18.646C12.1574 18.646 12.2908 19.2213 12.0612 19.2213C11.8298 19.2213 11.9676 18.646 11.2002 18.646C11.2137 19.2615 11.6603 19.6615 12.0612 19.6747" fill="#E4002B"/>
<path d="M12.0612 19.6747C12.4594 19.6615 12.9054 19.2615 12.9204 18.646C12.1574 18.646 12.2908 19.2213 12.0612 19.2213C11.8298 19.2213 11.9676 18.646 11.2002 18.646C11.2137 19.2615 11.6603 19.6615 12.0612 19.6747" stroke="#E4002B"/>
<path d="M13.3586 18.7384C13.7769 19.0612 13.7077 20.1045 13.1028 20.3448C12.4825 20.5272 12.5579 20.6263 12.0588 20.6505C11.5606 20.6262 11.6354 20.5271 11.0149 20.3448C10.4097 20.1044 10.3408 19.0612 10.76 18.7384C10.5801 19.4221 11.206 20.0605 11.2258 20.0587C11.2466 19.9257 11.3752 19.8772 11.383 19.8732C11.383 19.8642 11.4962 20.2677 12.0588 20.2814C12.6041 20.2683 12.7275 19.887 12.7356 19.8732C12.7362 19.8747 12.8698 19.9218 12.8909 20.0587C12.8996 20.0732 13.5391 19.4288 13.3586 18.7384ZM12.0598 15.6017C12.4058 15.6017 12.7665 15.7555 12.8938 15.9757C12.7064 15.8195 12.3668 15.7208 12.0598 15.7208C11.7545 15.7208 11.4134 15.8194 11.2248 15.9757C11.3512 15.7555 11.7141 15.6017 12.0598 15.6017Z" fill="white"/>
</svg>
